<svg width="27" height="33" viewBox="0 0 27 33" fill="none" xmlns="http://www.w3.org/2000/svg">
<path fill-rule="evenodd" clip-rule="evenodd" d="M2.56354 0.439833C2.42409 0.300388 2.25855 0.189776 2.07635 0.114309C1.89416 0.0388423 1.69889 1.46928e-09 1.50168 0C1.30448 -1.46928e-09 1.10921 0.0388423 0.927014 0.114309C0.744822 0.189776 0.579277 0.300388 0.439833 0.439833C0.300388 0.579277 0.189776 0.744822 0.114309 0.927015C0.0388423 1.10921 -1.46928e-09 1.30448 0 1.50168C1.46928e-09 1.69889 0.0388423 1.89416 0.114309 2.07635C0.189776 2.25855 0.300388 2.42409 0.439833 2.56354L12.4381 14.5619C12.5775 14.7015 12.743 14.8123 12.9252 14.8879C13.1074 14.9636 13.3027 15.0025 13.5 15.0025C13.6973 15.0025 13.8926 14.9636 14.0748 14.8879C14.257 14.8123 14.4225 14.7015 14.5619 14.5619L26.5602 2.56354C26.8418 2.28192 27 1.89996 27 1.50168C27 1.10341 26.8418 0.721453 26.5602 0.439833C26.2785 0.158212 25.8966 0 25.4983 0C25.1 0 24.7181 0.158212 24.4365 0.439833L13.5 11.3793L2.56354 0.439833ZM2.56354 18.4373C2.28191 18.1557 1.89996 17.9975 1.50168 17.9975C1.10341 17.9975 0.721453 18.1557 0.439833 18.4373C0.158212 18.7189 0 19.1009 0 19.4992C0 19.8974 0.158212 20.2794 0.439833 20.561L12.4381 32.5593C12.5775 32.699 12.743 32.8098 12.9252 32.8854C13.1074 32.961 13.3027 32.9999 13.5 32.9999C13.6973 32.9999 13.8926 32.961 14.0748 32.8854C14.257 32.8098 14.4225 32.699 14.5619 32.5593L26.5602 20.561C26.8418 20.2794 27 19.8974 27 19.4992C27 19.1009 26.8418 18.7189 26.5602 18.4373C26.2785 18.1557 25.8966 17.9975 25.4983 17.9975C25.1 17.9975 24.7181 18.1557 24.4365 18.4373L13.5 29.3768L2.56354 18.4373Z" fill="white"/>
</svg>
