<svg width="41" height="41" viewBox="0 0 41 41" fill="none" xmlns="http://www.w3.org/2000/svg">
<path d="M41 20.5C41 31.8218 31.8218 41 20.5 41C9.17816 41 0 31.8218 0 20.5C0 9.17816 9.17816 0 20.5 0C31.8218 0 41 9.17816 41 20.5Z" fill="white" fill-opacity="0.32"/>
<path fill-rule="evenodd" clip-rule="evenodd" d="M12.2666 26.5081C12.1821 26.6137 12.115 26.7391 12.0693 26.8771C12.0235 27.0151 12 27.163 12 27.3123C12 27.4617 12.0235 27.6096 12.0693 27.7476C12.115 27.8856 12.1821 28.011 12.2666 28.1166C12.3511 28.2222 12.4514 28.306 12.5618 28.3631C12.6722 28.4203 12.7906 28.4497 12.9101 28.4497C13.0296 28.4497 13.148 28.4203 13.2584 28.3631C13.3688 28.306 13.4691 28.2222 13.5537 28.1166L20.8254 19.0291C20.91 18.9236 20.9772 18.7982 21.023 18.6602C21.0688 18.5222 21.0924 18.3743 21.0924 18.2249C21.0924 18.0754 21.0688 17.9275 21.023 17.7895C20.9772 17.6515 20.91 17.5261 20.8254 17.4206L13.5537 8.33313C13.4691 8.22751 13.3688 8.14374 13.2584 8.08658C13.148 8.02942 13.0296 8 12.9101 8C12.7906 8 12.6722 8.02942 12.5618 8.08658C12.4514 8.14374 12.3511 8.22751 12.2666 8.33313C12.1821 8.43874 12.115 8.56413 12.0693 8.70212C12.0235 8.84011 12 8.98801 12 9.13737C12 9.28673 12.0235 9.43463 12.0693 9.57262C12.115 9.71062 12.1821 9.836 12.2666 9.94161L18.8966 18.2249L12.2666 26.5081ZM23.1741 26.5081C23.0035 26.7214 22.9076 27.0107 22.9076 27.3123C22.9076 27.614 23.0035 27.9033 23.1741 28.1166C23.3448 28.3299 23.5763 28.4497 23.8177 28.4497C24.0591 28.4497 24.2906 28.3299 24.4612 28.1166L31.733 19.0291C31.8176 18.9236 31.8848 18.7982 31.9306 18.6602C31.9764 18.5222 32 18.3743 32 18.2249C32 18.0754 31.9764 17.9275 31.9306 17.7895C31.8848 17.6515 31.8176 17.5261 31.733 17.4206L24.4612 8.33313C24.2906 8.11983 24.0591 8 23.8177 8C23.5763 8 23.3448 8.11983 23.1741 8.33313C23.0035 8.54643 22.9076 8.83572 22.9076 9.13737C22.9076 9.43902 23.0035 9.72831 23.1741 9.94161L29.8041 18.2249L23.1741 26.5081Z" fill="white"/>
</svg>
