<svg width="174" height="33" viewBox="0 0 174 33" fill="none" xmlns="http://www.w3.org/2000/svg">
<path d="M43.256 9.896H37.784V26H35.432V9.896H29.96V7.808H43.256V9.896ZM50.4509 12.728C51.8589 12.728 52.9309 12.968 53.6669 13.448C54.4029 13.912 54.8909 14.544 55.1309 15.344C55.3709 16.128 55.4909 17.12 55.4909 18.32V26H53.2349V24.68C52.6269 25.256 52.0189 25.672 51.4109 25.928C50.8029 26.184 50.1469 26.312 49.4429 26.312C48.6109 26.312 47.8589 26.136 47.1869 25.784C46.5149 25.416 45.9789 24.896 45.5789 24.224C45.1949 23.536 45.0029 22.728 45.0029 21.8C45.0029 20.36 45.4509 19.248 46.3469 18.464C47.2429 17.664 48.4509 17.264 49.9709 17.264C51.1709 17.264 52.2509 17.528 53.2109 18.056C53.1949 17.272 53.1149 16.648 52.9709 16.184C52.8269 15.72 52.5309 15.368 52.0829 15.128C51.6349 14.872 50.9709 14.744 50.0909 14.744H48.3149V12.728H50.4509ZM49.7549 24.368C50.2989 24.368 50.8669 24.24 51.4589 23.984C52.0669 23.728 52.6589 23.344 53.2349 22.832V19.808C52.3389 19.36 51.3629 19.136 50.3069 19.136C49.4589 19.136 48.7469 19.344 48.1709 19.76C47.5949 20.16 47.3069 20.84 47.3069 21.8C47.3069 22.696 47.5469 23.352 48.0269 23.768C48.5229 24.168 49.0989 24.368 49.7549 24.368ZM62.5987 26.312C61.3987 26.312 60.5347 26.072 60.0067 25.592C59.4787 25.112 59.2147 24.304 59.2147 23.168V5.696H61.4707V22.568C61.4707 23.208 61.5667 23.648 61.7587 23.888C61.9667 24.112 62.3507 24.224 62.9107 24.224C63.3587 24.224 63.7587 24.176 64.1107 24.08V26.144C63.4707 26.256 62.9667 26.312 62.5987 26.312ZM70.9588 12.728C72.3668 12.728 73.4388 12.968 74.1748 13.448C74.9108 13.912 75.3988 14.544 75.6388 15.344C75.8788 16.128 75.9988 17.12 75.9988 18.32V26H73.7428V24.68C73.1348 25.256 72.5268 25.672 71.9188 25.928C71.3108 26.184 70.6548 26.312 69.9508 26.312C69.1188 26.312 68.3668 26.136 67.6948 25.784C67.0228 25.416 66.4868 24.896 66.0868 24.224C65.7028 23.536 65.5107 22.728 65.5107 21.8C65.5107 20.36 65.9588 19.248 66.8548 18.464C67.7508 17.664 68.9588 17.264 70.4788 17.264C71.6788 17.264 72.7588 17.528 73.7188 18.056C73.7028 17.272 73.6228 16.648 73.4788 16.184C73.3348 15.72 73.0388 15.368 72.5908 15.128C72.1428 14.872 71.4788 14.744 70.5988 14.744H68.8228V12.728H70.9588ZM70.2628 24.368C70.8068 24.368 71.3748 24.24 71.9668 23.984C72.5748 23.728 73.1668 23.344 73.7428 22.832V19.808C72.8468 19.36 71.8708 19.136 70.8148 19.136C69.9668 19.136 69.2548 19.344 68.6788 19.76C68.1028 20.16 67.8148 20.84 67.8148 21.8C67.8148 22.696 68.0548 23.352 68.5348 23.768C69.0308 24.168 69.6068 24.368 70.2628 24.368ZM79.7225 22.136H82.2185V26H79.7225V22.136Z" fill="white"/>
<path d="M101.999 12.296C103.663 12.296 104.903 12.744 105.719 13.64C106.535 14.52 106.943 15.944 106.943 17.912V26H103.727V17.912C103.727 16.968 103.551 16.28 103.199 15.848C102.847 15.4 102.239 15.176 101.375 15.176C100.335 15.176 99.2628 15.672 98.1588 16.664C98.2068 17.048 98.2308 17.464 98.2308 17.912V26H95.0148V17.912C95.0148 16.968 94.8388 16.28 94.4868 15.848C94.1348 15.4 93.5268 15.176 92.6628 15.176C91.6228 15.176 90.5748 15.64 89.5188 16.568V26H86.3028V12.584H89.5188V13.808C90.7188 12.8 91.9748 12.296 93.2868 12.296C94.3428 12.296 95.2228 12.472 95.9268 12.824C96.6468 13.16 97.1908 13.696 97.5588 14.432C98.2788 13.712 98.9908 13.176 99.6948 12.824C100.415 12.472 101.183 12.296 101.999 12.296ZM116.563 26.408C115.075 26.408 113.811 26.096 112.771 25.472C111.731 24.848 110.947 24 110.419 22.928C109.907 21.84 109.651 20.624 109.651 19.28C109.651 17.952 109.907 16.752 110.419 15.68C110.947 14.608 111.731 13.76 112.771 13.136C113.811 12.512 115.075 12.2 116.563 12.2C118.035 12.2 119.283 12.512 120.307 13.136C121.347 13.76 122.123 14.608 122.635 15.68C123.163 16.752 123.427 17.952 123.427 19.28C123.427 20.624 123.163 21.84 122.635 22.928C122.123 24 121.347 24.848 120.307 25.472C119.283 26.096 118.035 26.408 116.563 26.408ZM116.563 23.6C117.699 23.6 118.571 23.216 119.179 22.448C119.787 21.664 120.091 20.608 120.091 19.28C120.091 17.952 119.787 16.904 119.179 16.136C118.571 15.368 117.699 14.984 116.563 14.984C115.411 14.984 114.523 15.368 113.899 16.136C113.291 16.904 112.987 17.952 112.987 19.28C112.987 20.608 113.291 21.664 113.899 22.448C114.523 23.216 115.411 23.6 116.563 23.6ZM138.499 12.584L133.771 26.216H129.739L125.011 12.584H128.323L131.755 23.144L135.187 12.584H138.499ZM140.889 6.632H144.105V10.256H140.889V6.632ZM140.889 12.584H144.105V26H140.889V12.584ZM150.487 20.024C150.743 22.456 152.087 23.672 154.519 23.672C155.143 23.672 155.751 23.592 156.343 23.432C156.935 23.272 157.599 23.016 158.335 22.664L159.199 25.208C158.431 25.64 157.647 25.944 156.847 26.12C156.047 26.312 155.143 26.408 154.135 26.408C152.647 26.408 151.375 26.112 150.319 25.52C149.263 24.912 148.463 24.072 147.919 23C147.391 21.928 147.127 20.68 147.127 19.256C147.127 17.768 147.407 16.496 147.967 15.44C148.527 14.368 149.287 13.56 150.247 13.016C151.207 12.472 152.279 12.2 153.463 12.2C155.335 12.2 156.799 12.76 157.855 13.88C158.927 14.984 159.471 16.608 159.487 18.752V20.024H150.487ZM153.463 14.936C151.895 14.936 150.943 15.8 150.607 17.528H156.103C156.023 16.632 155.767 15.976 155.335 15.56C154.903 15.144 154.279 14.936 153.463 14.936ZM166.848 26.408C165.808 26.408 164.88 26.32 164.064 26.144C163.248 25.968 162.4 25.672 161.52 25.256V22.304C162.368 22.784 163.224 23.136 164.088 23.36C164.968 23.568 165.888 23.672 166.848 23.672C168.208 23.672 168.888 23.184 168.888 22.208C168.888 21.792 168.768 21.488 168.528 21.296C168.304 21.088 167.944 20.92 167.448 20.792L165.48 20.36C164.248 20.088 163.312 19.648 162.672 19.04C162.048 18.416 161.736 17.528 161.736 16.376C161.736 13.592 163.472 12.2 166.944 12.2C168.464 12.2 169.992 12.488 171.528 13.064V15.896C170.936 15.608 170.256 15.376 169.488 15.2C168.72 15.024 167.92 14.936 167.088 14.936C165.696 14.936 165 15.352 165 16.184C165 16.568 165.112 16.848 165.336 17.024C165.576 17.2 165.928 17.344 166.392 17.456L168.336 17.888C169.632 18.192 170.592 18.648 171.216 19.256C171.84 19.864 172.152 20.8 172.152 22.064C172.152 23.488 171.672 24.568 170.712 25.304C169.752 26.04 168.464 26.408 166.848 26.408Z" fill="#0070F4"/>
<path d="M23.0769 0H19.3846C18.8748 0 18.4615 0.432793 18.4615 0.966797V3.93164H5.53846V0.966797C5.53846 0.432793 5.12524 0 4.61538 0H0.923077C0.413221 0 0 0.432793 0 0.966797V32.0332C0 32.5672 0.413221 33 0.923077 33H4.61538C5.12524 33 5.53846 32.5672 5.53846 32.0332V29.0684H18.4615V32.0332C18.4615 32.5672 18.8748 33 19.3846 33H23.0769C23.5868 33 24 32.5672 24 32.0332V0.966797C24 0.432793 23.5868 0 23.0769 0ZM20.3077 9.73242H22.1538V11.666H20.3077V9.73242ZM20.3077 7.79883V5.86523H22.1538V7.79883H20.3077ZM20.3077 13.5996H22.1538V15.5332H20.3077V13.5996ZM22.1538 17.4668V19.4004H20.3077V17.4668H22.1538ZM20.3077 21.334H22.1538V23.2676H20.3077V21.334ZM20.3077 25.2012H22.1538V27.1348H20.3077V25.2012ZM20.3077 1.93359H22.1538V3.93164H20.3077V1.93359ZM18.4615 5.86523V15.5332H5.53846V5.86523H18.4615ZM3.69231 11.666H1.84615V9.73242H3.69231V11.666ZM3.69231 7.79883H1.84615V5.86523H3.69231V7.79883ZM3.69231 23.2676H1.84615V21.334H3.69231V23.2676ZM1.84615 25.2012H3.69231V27.1348H1.84615V25.2012ZM3.69231 19.4004H1.84615V17.4668H3.69231V19.4004ZM1.84615 15.5332V13.5996H3.69231V15.5332H1.84615ZM3.69231 1.93359V3.93164H1.84615V1.93359H3.69231ZM3.69231 31.0664H1.84615V29.0684H3.69231V31.0664ZM5.53846 27.1348V17.4668H18.4615V27.1348H5.53846ZM20.3077 31.0664V29.0684H22.1538V31.0664H20.3077Z" fill="#0070F4"/>
</svg>
