<svg width="321" height="108" viewBox="0 0 321 108" fill="none" xmlns="http://www.w3.org/2000/svg">
<path d="M39.7 31.45H28.3V65H23.4V31.45H12V27.1H39.7V31.45ZM54.6895 37.35C57.6228 37.35 59.8561 37.85 61.3895 38.85C62.9228 39.8167 63.9395 41.1333 64.4395 42.8C64.9395 44.4333 65.1895 46.5 65.1895 49V65H60.4895V62.25C59.2228 63.45 57.9561 64.3167 56.6895 64.85C55.4228 65.3833 54.0561 65.65 52.5895 65.65C50.8561 65.65 49.2895 65.2833 47.8895 64.55C46.4895 63.7833 45.3728 62.7 44.5395 61.3C43.7395 59.8667 43.3395 58.1833 43.3395 56.25C43.3395 53.25 44.2728 50.9333 46.1395 49.3C48.0061 47.6333 50.5228 46.8 53.6895 46.8C56.1895 46.8 58.4395 47.35 60.4395 48.45C60.4061 46.8167 60.2395 45.5167 59.9395 44.55C59.6395 43.5833 59.0228 42.85 58.0895 42.35C57.1561 41.8167 55.7728 41.55 53.9395 41.55H50.2395V37.35H54.6895ZM53.2395 61.6C54.3728 61.6 55.5561 61.3333 56.7895 60.8C58.0561 60.2667 59.2895 59.4667 60.4895 58.4V52.1C58.6228 51.1667 56.5895 50.7 54.3895 50.7C52.6228 50.7 51.1395 51.1333 49.9395 52C48.7395 52.8333 48.1395 54.25 48.1395 56.25C48.1395 58.1167 48.6395 59.4833 49.6395 60.35C50.6728 61.1833 51.8728 61.6 53.2395 61.6ZM79.9973 65.65C77.4973 65.65 75.6973 65.15 74.5973 64.15C73.4973 63.15 72.9473 61.4667 72.9473 59.1V22.7H77.6473V57.85C77.6473 59.1833 77.8473 60.1 78.2473 60.6C78.6806 61.0667 79.4806 61.3 80.6473 61.3C81.5806 61.3 82.4139 61.2 83.1473 61V65.3C81.8139 65.5333 80.7639 65.65 79.9973 65.65ZM97.4141 37.35C100.347 37.35 102.581 37.85 104.114 38.85C105.647 39.8167 106.664 41.1333 107.164 42.8C107.664 44.4333 107.914 46.5 107.914 49V65H103.214V62.25C101.947 63.45 100.681 64.3167 99.4141 64.85C98.1474 65.3833 96.7807 65.65 95.3141 65.65C93.5807 65.65 92.0141 65.2833 90.6141 64.55C89.2141 63.7833 88.0974 62.7 87.2641 61.3C86.4641 59.8667 86.0641 58.1833 86.0641 56.25C86.0641 53.25 86.9974 50.9333 88.8641 49.3C90.7307 47.6333 93.2474 46.8 96.4141 46.8C98.9141 46.8 101.164 47.35 103.164 48.45C103.131 46.8167 102.964 45.5167 102.664 44.55C102.364 43.5833 101.747 42.85 100.814 42.35C99.8807 41.8167 98.4974 41.55 96.6641 41.55H92.9641V37.35H97.4141ZM95.9641 61.6C97.0974 61.6 98.2807 61.3333 99.5141 60.8C100.781 60.2667 102.014 59.4667 103.214 58.4V52.1C101.347 51.1667 99.3141 50.7 97.1141 50.7C95.3474 50.7 93.8641 51.1333 92.6641 52C91.4641 52.8333 90.8641 54.25 90.8641 56.25C90.8641 58.1167 91.3641 59.4833 92.3641 60.35C93.3974 61.1833 94.5974 61.6 95.9641 61.6ZM115.672 56.95H120.872V65H115.672V56.95Z" fill="white"/>
<path d="M162.081 36.45C165.548 36.45 168.131 37.3833 169.831 39.25C171.531 41.0833 172.381 44.05 172.381 48.15V65H165.681V48.15C165.681 46.1833 165.314 44.75 164.581 43.85C163.848 42.9167 162.581 42.45 160.781 42.45C158.614 42.45 156.381 43.4833 154.081 45.55C154.181 46.35 154.231 47.2167 154.231 48.15V65H147.531V48.15C147.531 46.1833 147.164 44.75 146.431 43.85C145.698 42.9167 144.431 42.45 142.631 42.45C140.464 42.45 138.281 43.4167 136.081 45.35V65H129.381V37.05H136.081V39.6C138.581 37.5 141.198 36.45 143.931 36.45C146.131 36.45 147.964 36.8167 149.431 37.55C150.931 38.25 152.064 39.3667 152.831 40.9C154.331 39.4 155.814 38.2833 157.281 37.55C158.781 36.8167 160.381 36.45 162.081 36.45ZM192.423 65.85C189.323 65.85 186.689 65.2 184.523 63.9C182.356 62.6 180.723 60.8333 179.623 58.6C178.556 56.3333 178.023 53.8 178.023 51C178.023 48.2333 178.556 45.7333 179.623 43.5C180.723 41.2667 182.356 39.5 184.523 38.2C186.689 36.9 189.323 36.25 192.423 36.25C195.489 36.25 198.089 36.9 200.223 38.2C202.389 39.5 204.006 41.2667 205.073 43.5C206.173 45.7333 206.723 48.2333 206.723 51C206.723 53.8 206.173 56.3333 205.073 58.6C204.006 60.8333 202.389 62.6 200.223 63.9C198.089 65.2 195.489 65.85 192.423 65.85ZM192.423 60C194.789 60 196.606 59.2 197.873 57.6C199.139 55.9667 199.773 53.7667 199.773 51C199.773 48.2333 199.139 46.05 197.873 44.45C196.606 42.85 194.789 42.05 192.423 42.05C190.023 42.05 188.173 42.85 186.873 44.45C185.606 46.05 184.973 48.2333 184.973 51C184.973 53.7667 185.606 55.9667 186.873 57.6C188.173 59.2 190.023 60 192.423 60ZM238.123 37.05L228.273 65.45H219.873L210.023 37.05H216.923L224.073 59.05L231.223 37.05H238.123ZM243.102 24.65H249.802V32.2H243.102V24.65ZM243.102 37.05H249.802V65H243.102V37.05ZM263.099 52.55C263.632 57.6167 266.432 60.15 271.499 60.15C272.799 60.15 274.065 59.9833 275.299 59.65C276.532 59.3167 277.915 58.7833 279.449 58.05L281.249 63.35C279.649 64.25 278.015 64.8833 276.349 65.25C274.682 65.65 272.799 65.85 270.699 65.85C267.599 65.85 264.949 65.2333 262.749 64C260.549 62.7333 258.882 60.9833 257.749 58.75C256.649 56.5167 256.099 53.9167 256.099 50.95C256.099 47.85 256.682 45.2 257.849 43C259.015 40.7667 260.599 39.0833 262.599 37.95C264.599 36.8167 266.832 36.25 269.299 36.25C273.199 36.25 276.249 37.4167 278.449 39.75C280.682 42.05 281.815 45.4333 281.849 49.9V52.55H263.099ZM269.299 41.95C266.032 41.95 264.049 43.75 263.349 47.35H274.799C274.632 45.4833 274.099 44.1167 273.199 43.25C272.299 42.3833 270.999 41.95 269.299 41.95ZM297.183 65.85C295.016 65.85 293.083 65.6667 291.383 65.3C289.683 64.9333 287.916 64.3167 286.083 63.45V57.3C287.849 58.3 289.633 59.0333 291.433 59.5C293.266 59.9333 295.183 60.15 297.183 60.15C300.016 60.15 301.433 59.1333 301.433 57.1C301.433 56.2333 301.183 55.6 300.683 55.2C300.216 54.7667 299.466 54.4167 298.433 54.15L294.333 53.25C291.766 52.6833 289.816 51.7667 288.483 50.5C287.183 49.2 286.533 47.35 286.533 44.95C286.533 39.15 290.149 36.25 297.383 36.25C300.549 36.25 303.733 36.85 306.933 38.05V43.95C305.699 43.35 304.283 42.8667 302.683 42.5C301.083 42.1333 299.416 41.95 297.683 41.95C294.783 41.95 293.333 42.8167 293.333 44.55C293.333 45.35 293.566 45.9333 294.033 46.3C294.533 46.6667 295.266 46.9667 296.233 47.2L300.283 48.1C302.983 48.7333 304.983 49.6833 306.283 50.95C307.583 52.2167 308.233 54.1667 308.233 56.8C308.233 59.7667 307.233 62.0167 305.233 63.55C303.233 65.0833 300.549 65.85 297.183 65.85Z" fill="#0070F4"/>
</svg>
