<svg width="89" height="116" viewBox="0 0 89 116" fill="none" xmlns="http://www.w3.org/2000/svg">
<path d="M84.9609 0H71.3672C69.4901 0 67.9688 1.52133 67.9688 3.39844V13.8203H20.3906V3.39844C20.3906 1.52133 18.8693 0 16.9922 0H3.39844C1.52133 0 0 1.52133 0 3.39844V112.602C0 114.479 1.52133 116 3.39844 116H16.9922C18.8693 116 20.3906 114.479 20.3906 112.602V102.18H67.9688V112.602C67.9688 114.479 69.4901 116 71.3672 116H84.9609C86.838 116 88.3594 114.479 88.3594 112.602V3.39844C88.3594 1.52133 86.838 0 84.9609 0ZM74.7656 34.2109H81.5625V41.0078H74.7656V34.2109ZM74.7656 27.4141V20.6172H81.5625V27.4141H74.7656ZM74.7656 47.8047H81.5625V54.6016H74.7656V47.8047ZM81.5625 61.3984V68.1953H74.7656V61.3984H81.5625ZM74.7656 74.9922H81.5625V81.7891H74.7656V74.9922ZM74.7656 88.5859H81.5625V95.3828H74.7656V88.5859ZM74.7656 6.79688H81.5625V13.8203H74.7656V6.79688ZM67.9688 20.6172V54.6016H20.3906V20.6172H67.9688ZM13.5938 41.0078H6.79688V34.2109H13.5938V41.0078ZM13.5938 27.4141H6.79688V20.6172H13.5938V27.4141ZM13.5938 81.7891H6.79688V74.9922H13.5938V81.7891ZM6.79688 88.5859H13.5938V95.3828H6.79688V88.5859ZM13.5938 68.1953H6.79688V61.3984H13.5938V68.1953ZM6.79688 54.6016V47.8047H13.5938V54.6016H6.79688ZM13.5938 6.79688V13.8203H6.79688V6.79688H13.5938ZM13.5938 109.203H6.79688V102.18H13.5938V109.203ZM20.3906 95.3828V61.3984H67.9688V95.3828H20.3906ZM74.7656 109.203V102.18H81.5625V109.203H74.7656Z" fill="#0070F4"/>
</svg>
